<svg xmlns="http://www.w3.org/2000/svg" width="800" height="800" fill="none" viewBox="0 0 24 24"><path fill="#000" fill-rule="evenodd" d="M4.75 5a1 1 0 0 0-.994 1.117l1.53 13a1 1 0 0 0 .992.883h11.448a1 1 0 0 0 .992-.88L19.813 10h-2.578a1 1 0 0 0-.99.859l-.755 5.282a1 1 0 0 1-.99.859h-5a1 1 0 0 1-.99-.859l-1-7A1 1 0 0 1 8.5 8h10l1.546-.006.21-1.882A1 1 0 0 0 19.264 5H4.749Zm16.894 4.195c.21-.277.348-.611.389-.978l.211-1.882A3 3 0 0 0 19.263 3H4.749a3 3 0 0 0-2.98 3.35l1.53 13A3 3 0 0 0 6.279 22h11.447a3 3 0 0 0 2.978-2.643l1.095-9.119a1.987 1.987 0 0 0-.155-1.043ZM14.406 10H9.653l.714 5h3.266l.632-4.424c.028-.2.076-.392.14-.576Z" clip-rule="evenodd"/></svg>